<svg width="320" height="80" viewBox="0 0 320 80" xmlns="http://www.w3.org/2000/svg">
  <!-- Clay rounded square -->
  <rect x="0" y="0" width="80" height="80" rx="16" fill="#b5663f"/>

  <!--
    HeartHandshake — exact path from lucide-react installed in heartful-os.
    Source: node_modules/lucide-react/dist/esm/icons/heart-handshake.mjs
    Lucide 24×24 → scaled 2.5× and centered (offset 9, 9) in 80×80 box
  -->
  <g transform="translate(9, 9) scale(2.583)" stroke="white" stroke-width="1.5" fill="none" stroke-linecap="round" stroke-linejoin="round">
    <path d="M19.414 14.414C21 12.828 22 11.5 22 9.5a5.5 5.5 0 0 0-9.591-3.676.6.6 0 0 1-.818.001A5.5 5.5 0 0 0 2 9.5c0 2.3 1.5 4 3 5.5l5.535 5.362a2 2 0 0 0 2.879.052 2.12 2.12 0 0 0-.004-3 2.124 2.124 0 1 0 3-3 2.124 2.124 0 0 0 3.004 0 2 2 0 0 0 0-2.828l-1.881-1.882a2.41 2.41 0 0 0-3.409 0l-1.71 1.71a2 2 0 0 1-2.828 0 2 2 0 0 1 0-2.828l2.823-2.762"/>
  </g>

  <!-- Wordmark -->
  <text x="96" y="32" font-family="-apple-system, BlinkMacSystemFont, 'Segoe UI', Helvetica Neue, Arial, sans-serif" font-size="22" font-weight="700" fill="#2b2420" letter-spacing="-0.3">Heartful OS</text>
  <text x="97" y="52" font-family="-apple-system, BlinkMacSystemFont, 'Segoe UI', Helvetica Neue, Arial, sans-serif" font-size="11.5" font-weight="400" fill="#948572" letter-spacing="1.2">JOURNEY MANAGEMENT</text>
</svg>
